<svg width="68" height="20" viewBox="0 0 68 20" fill="none" xmlns="http://www.w3.org/2000/svg">
<path d="M39.2232 0C33.7036 0 29.6387 4.2004 29.6387 9.8148C29.6387 15.1716 33.0178 19.6282 39.3932 19.6282C42.4737 19.6282 45.3842 18.386 47.0102 16.5012C47.3088 16.1577 47.5231 15.7713 47.5231 15.3434C47.5293 15.1229 47.4904 14.9035 47.4089 14.6986C47.3273 14.4937 47.2049 14.3076 47.0491 14.1517C46.8932 13.9959 46.7072 13.8736 46.5025 13.7923C46.2978 13.711 46.0787 13.6724 45.8586 13.6789C45.3456 13.6789 44.8755 13.9795 44.5326 14.3215C43.121 15.6511 41.7936 16.4225 39.5689 16.4225C36.0183 16.4225 34.0065 14.1927 33.7936 11.236H46.5858C47.7418 11.236 48.1261 10.5504 48.1261 9.8649C48.1218 4.3764 44.6141 0 39.2232 0ZM33.8751 7.9715C34.2594 5.3153 36.2698 3.2143 39.2232 3.2143C42.1322 3.2143 44.0568 5.3997 44.3998 7.9715H33.8751Z" fill="#4F868E"/>
<path d="M58.3236 0C52.9326 0 49.4306 4.3764 49.4306 9.8578C49.4306 10.5433 49.815 11.2288 50.9709 11.2288H63.7645C63.5502 14.1856 61.5384 16.4139 57.9878 16.4139C55.7631 16.4139 54.4358 15.6439 53.0241 14.3144C52.6826 13.9723 52.2111 13.6718 51.6981 13.6718C51.477 13.6646 51.2568 13.703 51.0511 13.7844C50.8454 13.8659 50.6586 13.9888 50.5022 14.1454C50.3457 14.3021 50.2231 14.4893 50.1417 14.6953C50.0604 14.9013 50.0221 15.1219 50.0293 15.3434C50.0293 15.7727 50.2436 16.1577 50.5422 16.5012C52.1682 18.386 55.0773 19.6282 58.1592 19.6282C64.5346 19.6282 67.9138 15.1716 67.9138 9.8148C67.9081 4.2004 63.8431 0 58.3236 0ZM53.1455 7.9715C53.4884 5.3954 55.4131 3.2143 58.3221 3.2143C61.2755 3.2143 63.2858 5.3153 63.6716 7.9715H53.1455Z" fill="#4F868E"/>
<path d="M20.3128 0C17.8495 0 15.6434 1.1836 14.1689 3.0398C12.6957 1.1793 10.4911 0 8.02491 0C3.59561 0 0.000709267 3.8169 0.000709267 8.5068V17.8093C-0.00619073 18.0613 0.0373083 18.3121 0.128808 18.5469C0.220308 18.7818 0.357909 18.9958 0.533409 19.1765C0.708809 19.3572 0.918709 19.5008 1.15061 19.5989C1.38241 19.697 1.63151 19.7475 1.88321 19.7475C2.13481 19.7475 2.38401 19.697 2.61581 19.5989C2.84761 19.5008 3.05751 19.3572 3.23301 19.1765C3.40851 18.9958 3.54601 18.7818 3.63751 18.5469C3.72901 18.3121 3.77261 18.0613 3.76561 17.8093V8.5068C3.76561 5.8964 5.67601 3.7725 8.02491 3.7725C10.3739 3.7725 12.2828 5.8949 12.2842 8.5053V17.8078C12.2842 18.3079 12.4825 18.7874 12.8353 19.1411C13.1882 19.4948 13.6668 19.6937 14.166 19.6941C14.5411 19.6937 14.9077 19.5816 15.219 19.3721C15.269 19.3377 15.3176 19.302 15.3619 19.2633C15.576 19.0862 15.7484 18.8639 15.8667 18.6123C15.985 18.3607 16.0463 18.086 16.0463 17.8078V8.5053C16.0463 5.8949 17.9567 3.7725 20.3056 3.7725C22.6546 3.7725 24.5692 5.8964 24.5692 8.5068V17.8093C24.5692 18.3095 24.7676 18.7893 25.1208 19.1431C25.4739 19.4968 25.9529 19.6955 26.4524 19.6955C26.9518 19.6955 27.4308 19.4968 27.784 19.1431C28.1372 18.7893 28.3356 18.3095 28.3356 17.8093V8.5068C28.337 3.8169 24.7364 0 20.3128 0Z" fill="#4F868E"/>
</svg>
