<svg width="238px" height="70px" viewBox="0 0 238 70" version="1.1" xmlns="http://www.w3.org/2000/svg"
   xmlns:xlink="http://www.w3.org/1999/xlink">
   <g id="Page-4" stroke="none" stroke-width="1" fill="none" fill-rule="evenodd">
      <g id="Mee_Foundation_Style_Guide_2-14-22" transform="translate(-1446.000000, -298.000000)" fill="#E6E8E8">
         <g id="Group-344" transform="translate(180.000500, 295.991700)">
            <path
               d="M1434.571,37.057 C1434.571,39.452 1433.224,41.848 1429.181,41.848 L1384.412,41.848 C1385.161,52.179 1392.198,59.965 1404.624,59.965 C1412.41,59.965 1417.053,57.27 1421.993,52.628 C1423.192,51.431 1424.838,50.382 1426.635,50.382 C1429.779,50.382 1432.474,52.628 1432.474,56.222 C1432.474,57.718 1431.725,59.067 1430.678,60.265 C1424.988,66.852 1414.806,71.194 1404.027,71.194 C1381.716,71.194 1369.889,55.622 1369.889,36.906 C1369.889,17.292 1384.113,2.62 1403.427,2.62 C1422.293,2.62 1434.571,17.892 1434.571,37.057 M1403.427,13.849 C1393.095,13.849 1386.059,21.185 1384.712,30.469 L1421.545,30.469 C1420.346,21.485 1413.609,13.849 1403.427,13.849"
               id="Fill-280"></path>
            <path
               d="M1470.2699,2.6196 C1489.5849,2.6196 1503.8099,17.2916 1503.8099,36.9066 C1503.8099,55.6226 1491.9829,71.1946 1469.6719,71.1946 C1458.8909,71.1946 1448.7109,66.8526 1443.0209,60.2646 C1441.9739,59.0666 1441.2249,57.7186 1441.2249,56.2216 C1441.2249,52.6286 1443.9179,50.3826 1447.0639,50.3826 C1448.8609,50.3826 1450.5069,51.4306 1451.7039,52.6286 C1456.6459,57.2706 1461.2889,59.9646 1469.0749,59.9646 C1481.5009,59.9646 1488.5379,52.1786 1489.2869,41.8476 L1444.5179,41.8476 C1440.4749,41.8476 1439.1279,39.4516 1439.1279,37.0566 C1439.1279,17.8916 1451.4039,2.6196 1470.2699,2.6196 M1452.1539,30.4686 L1488.9869,30.4686 C1487.6399,21.1846 1480.6039,13.8486 1470.2699,13.8486 C1460.0899,13.8486 1453.3529,21.4846 1452.1539,30.4686"
               id="Fill-282"></path>
            <path
               d="M1315.7612,71.2804 C1312.1232,71.2804 1309.1732,68.3314 1309.1732,64.6924 L1309.1732,32.1814 C1309.1732,23.0614 1302.4872,15.6414 1294.2692,15.6414 C1286.0512,15.6414 1279.3652,23.0614 1279.3652,32.1814 L1279.3652,64.6924 C1279.3652,68.3314 1276.4152,71.2804 1272.7772,71.2804 C1269.1392,71.2804 1266.1892,68.3314 1266.1892,64.6924 L1266.1892,32.1814 C1266.1892,15.7954 1278.7852,2.4644 1294.2692,2.4644 C1309.7532,2.4644 1322.3492,15.7954 1322.3492,32.1814 L1322.3492,64.6924 C1322.3492,68.3314 1319.4002,71.2804 1315.7612,71.2804"
               id="Fill-284"></path>
            <path
               d="M1358.744,71.2804 C1355.106,71.2804 1352.156,68.3314 1352.156,64.6924 L1352.156,32.1814 C1352.156,23.0614 1345.47,15.6414 1337.253,15.6414 C1329.035,15.6414 1322.349,23.0614 1322.349,32.1814 L1322.349,64.6924 C1322.349,68.3314 1319.4,71.2804 1315.761,71.2804 C1312.123,71.2804 1309.173,68.3314 1309.173,64.6924 L1309.173,32.1814 C1309.173,15.7954 1321.77,2.4644 1337.252,2.4644 C1352.736,2.4644 1365.332,15.7954 1365.332,32.1814 L1365.332,64.6924 C1365.332,68.3314 1362.382,71.2804 1358.744,71.2804"
               id="Fill-286"></path>
         </g>
      </g>
   </g>
</svg>