<svg width="978" height="285" viewBox="0 0 978 285" fill="none" xmlns="http://www.w3.org/2000/svg">
   <rect width="978" height="285" fill="#214099" />
   <path
      d="M564.839 0.638618C485.358 0.638618 426.823 61.1019 426.823 141.919C426.823 219.028 475.482 283.178 567.288 283.178C611.647 283.178 653.558 265.297 676.973 238.166C681.273 233.222 684.359 227.659 684.359 221.5C684.447 218.326 683.887 215.167 682.713 212.218C681.54 209.268 679.776 206.59 677.532 204.347C675.288 202.104 672.61 200.343 669.662 199.173C666.714 198.002 663.559 197.447 660.389 197.541C653.003 197.541 646.234 201.867 641.296 206.791C620.968 225.929 601.854 237.033 569.818 237.033C518.69 237.033 489.72 204.937 486.654 162.375H670.862C687.507 162.375 693.042 152.508 693.042 142.64C692.98 63.6358 642.469 0.638618 564.839 0.638618ZM487.827 115.385C493.362 77.1499 522.311 46.908 564.839 46.908C606.73 46.908 634.444 78.3654 639.382 115.385H487.827Z"
      fill="#E5E8E8" />
   <path
      d="M839.885 0.638618C762.256 0.638618 711.827 63.6358 711.827 142.537C711.827 152.405 717.362 162.272 734.007 162.272H918.235C915.149 204.834 886.179 236.909 835.05 236.909C803.015 236.909 783.901 225.826 763.573 206.688C758.655 201.764 751.866 197.438 744.479 197.438C741.296 197.335 738.125 197.887 735.162 199.059C732.2 200.232 729.51 202.001 727.257 204.256C725.005 206.511 723.238 209.205 722.067 212.171C720.896 215.137 720.345 218.312 720.448 221.5C720.448 227.68 723.534 233.222 727.834 238.166C751.248 265.297 793.139 283.178 837.519 283.178C929.325 283.178 977.984 219.028 977.984 141.919C977.902 61.1019 919.366 0.638618 839.885 0.638618ZM765.322 115.385C770.26 78.3036 797.974 46.908 839.865 46.908C882.393 46.908 911.342 77.1499 916.897 115.385H765.322Z"
      fill="#E5E8E8" />
   <path
      d="M292.53 0C257.059 0 225.291 17.0369 204.057 43.7561C182.845 16.9751 151.098 0 115.585 0C51.8028 0 0.0361672 54.9423 0.0361672 122.451V256.356C-0.0636469 259.983 0.563665 263.594 1.88106 266.974C3.19845 270.354 5.17919 273.436 7.70622 276.037C10.2333 278.638 13.2553 280.705 16.5939 282.117C19.9324 283.528 23.5197 284.256 27.1437 284.256C30.7677 284.256 34.355 283.528 37.6935 282.117C41.032 280.705 44.0541 278.638 46.5811 276.037C49.1081 273.436 51.0889 270.354 52.4063 266.974C53.7237 263.594 54.351 259.983 54.2512 256.356V122.451C54.2512 84.8752 81.7599 54.3037 115.585 54.3037C149.41 54.3037 176.898 84.8546 176.919 122.43V256.336C176.919 263.533 179.773 270.436 184.854 275.528C189.936 280.619 196.828 283.482 204.016 283.487V283.487C209.418 283.482 214.696 281.868 219.18 278.852C219.9 278.358 220.6 277.843 221.238 277.287C224.32 274.737 226.802 271.537 228.506 267.915C230.21 264.293 231.093 260.339 231.093 256.336V122.43C231.093 84.8546 258.602 54.3037 292.427 54.3037C326.252 54.3037 353.823 84.8752 353.823 122.451V256.356C353.823 263.557 356.68 270.463 361.765 275.555C366.851 280.647 373.748 283.508 380.94 283.508C388.132 283.508 395.03 280.647 400.115 275.555C405.201 270.463 408.058 263.557 408.058 256.356V122.451C408.079 54.9423 356.23 0 292.53 0Z"
      fill="#E5E8E8" />
</svg>