<svg width="193px" height="192px" viewBox="0 0 193 192" version="1.1" xmlns="http://www.w3.org/2000/svg"
  xmlns:xlink="http://www.w3.org/1999/xlink">
  <g id="Page-1" stroke="none" stroke-width="1" fill="none" fill-rule="evenodd">
    <g id="favicon" transform="translate(0.500000, 0.000000)">
      <polygon id="Fill-377" fill="#224099" fill-rule="nonzero" points="0 192 192 192 192 0 0 0"></polygon>
      <g id="Group-412" transform="translate(22.500000, 22.500000)">
        <path
          d="M73.5005,104.7411 C70.1975,104.7411 67.5185,102.0631 67.5185,98.7601 L67.5185,69.2411 C67.5185,60.9601 61.4485,54.2231 53.9865,54.2231 C46.5245,54.2231 40.4545,60.9601 40.4545,69.2411 L40.4545,98.7601 C40.4545,102.0631 37.7765,104.7411 34.4725,104.7411 C31.1695,104.7411 28.4915,102.0631 28.4915,98.7601 L28.4915,69.2411 C28.4915,54.3631 39.9275,42.2591 53.9865,42.2591 C68.0455,42.2591 79.4825,54.3631 79.4825,69.2411 L79.4825,98.7601 C79.4825,102.0631 76.8045,104.7411 73.5005,104.7411"
          id="Fill-400" fill="#E6E8E8" fill-rule="nonzero"></path>
        <path
          d="M112.5271,104.7411 C109.2241,104.7411 106.5451,102.0631 106.5451,98.7601 L106.5451,69.2411 C106.5451,60.9601 100.4751,54.2231 93.0141,54.2231 C85.5531,54.2231 79.4821,60.9601 79.4821,69.2411 L79.4821,98.7601 C79.4821,102.0631 76.8041,104.7411 73.5001,104.7411 C70.1971,104.7411 67.5181,102.0631 67.5181,98.7601 L67.5181,69.2411 C67.5181,54.3631 78.9561,42.2591 93.0131,42.2591 C107.0721,42.2591 118.5091,54.3631 118.5091,69.2411 L118.5091,98.7601 C118.5091,102.0631 115.8301,104.7411 112.5271,104.7411"
          id="Fill-402" fill="#E6E8E8" fill-rule="nonzero"></path>
        <path
          d="M73.5,147 C114.028,147 147,114.028 147,73.5 C147,32.972 114.028,0 73.5,0 C32.972,0 0,32.972 0,73.5 C0,114.028 32.972,147 73.5,147 Z"
          id="Stroke-404" stroke="#EAEAEF" stroke-width="3"></path>
      </g>
    </g>
  </g>
</svg>