<svg xmlns="http://www.w3.org/2000/svg" version="1.1" xmlns:xlink="http://www.w3.org/1999/xlink" xmlns:svgjs="http://svgjs.com/svgjs" width="1000" height="1000"><svg width="1000" height="1000" viewBox="0 0 1000 1000" fill="none" xmlns="http://www.w3.org/2000/svg">
<rect width="1000" height="1000" fill="#214099"></rect>
<path d="M601.667 336.844C582.027 336.978 562.673 341.565 545.063 350.259C527.453 358.953 512.045 371.528 500 387.036C487.965 371.529 472.567 358.955 454.965 350.26C437.364 341.566 418.018 336.979 398.385 336.844C325.156 336.844 265.625 399.844 265.625 477.424V631.125C265.625 639.41 268.917 647.356 274.778 653.215C280.638 659.073 288.587 662.365 296.875 662.365C305.163 662.365 313.111 659.073 318.972 653.215C324.833 647.356 328.125 639.41 328.125 631.125V477.32C328.125 434.208 359.74 399.22 398.594 399.22C437.448 399.22 469.063 434.313 469.063 477.32V631.02C469.063 639.306 472.355 647.252 478.215 653.11C484.076 658.969 492.025 662.26 500.313 662.26C508.601 662.26 516.549 658.969 522.41 653.11C528.27 647.252 531.563 639.306 531.563 631.02V477.32C531.563 434.208 563.177 399.22 602.031 399.22C640.885 399.22 672.5 434.313 672.5 477.32V631.02C672.5 639.306 675.792 647.252 681.653 653.11C687.513 658.969 695.462 662.26 703.75 662.26C712.038 662.26 719.987 658.969 725.847 653.11C731.708 647.252 735 639.306 735 631.02V477.32C734.427 399.844 674.896 336.844 601.667 336.844Z" fill="#EAEAEF"></path>
<path d="M500 109C396.438 109.124 297.153 150.306 223.923 223.512C150.694 296.718 109.499 395.971 109.375 499.5C109.499 603.029 150.694 702.282 223.923 775.488C297.153 848.694 396.438 889.876 500 890C603.566 889.89 702.859 848.712 776.092 775.503C849.324 702.294 890.515 603.033 890.625 499.5C890.501 395.971 849.306 296.718 776.077 223.512C702.847 150.306 603.562 109.124 500 109ZM500 874.38C400.578 874.27 305.259 834.738 234.957 764.458C164.655 694.179 125.11 598.891 125 499.5C125.11 400.109 164.655 304.821 234.957 234.542C305.259 164.262 400.578 124.73 500 124.62C599.422 124.73 694.741 164.262 765.043 234.542C835.346 304.821 874.89 400.109 875 499.5C874.89 598.891 835.346 694.179 765.043 764.458C694.741 834.738 599.422 874.27 500 874.38V874.38Z" fill="#EAEAEF"></path>
</svg><style>@media (prefers-color-scheme: light) { :root { filter: none; } }
</style></svg>